<mxfile host="Electron" modified="2024-03-03T17:33:24.940Z" agent="Mozilla/5.0 (Windows NT 10.0; Win64; x64) AppleWebKit/537.36 (KHTML, like Gecko) draw.io/22.0.3 Chrome/114.0.5735.289 Electron/25.8.4 Safari/537.36" etag="WMDQGeA00KfK9rjGFCCY" version="22.0.3" type="device">
  <diagram name="Page-1" id="2mFwnKupaxyY2h6Orktk">
    <mxGraphModel dx="1007" dy="530" grid="1" gridSize="10" guides="1" tooltips="1" connect="1" arrows="1" fold="1" page="1" pageScale="1" pageWidth="827" pageHeight="1169" math="0" shadow="0">
      <root>
        <mxCell id="0" />
        <mxCell id="1" parent="0" />
        <mxCell id="0JkTIOT3cr42P_3IT7Oo-13" style="edgeStyle=orthogonalEdgeStyle;rounded=0;orthogonalLoop=1;jettySize=auto;html=1;" edge="1" parent="1" source="0JkTIOT3cr42P_3IT7Oo-8" target="0JkTIOT3cr42P_3IT7Oo-12">
          <mxGeometry relative="1" as="geometry" />
        </mxCell>
        <mxCell id="0JkTIOT3cr42P_3IT7Oo-8" value="" style="rounded=1;whiteSpace=wrap;html=1;" vertex="1" parent="1">
          <mxGeometry x="200" y="170" width="550" height="60" as="geometry" />
        </mxCell>
        <mxCell id="0JkTIOT3cr42P_3IT7Oo-3" value="Google" style="rounded=1;whiteSpace=wrap;html=1;" vertex="1" parent="1">
          <mxGeometry x="310" y="180" width="70" height="40" as="geometry" />
        </mxCell>
        <mxCell id="0JkTIOT3cr42P_3IT7Oo-4" value="Yahoo" style="rounded=1;whiteSpace=wrap;html=1;" vertex="1" parent="1">
          <mxGeometry x="400" y="180" width="70" height="40" as="geometry" />
        </mxCell>
        <mxCell id="0JkTIOT3cr42P_3IT7Oo-5" value="Microsoft Bing" style="rounded=1;whiteSpace=wrap;html=1;" vertex="1" parent="1">
          <mxGeometry x="490" y="180" width="70" height="40" as="geometry" />
        </mxCell>
        <mxCell id="0JkTIOT3cr42P_3IT7Oo-6" value="Yandex" style="rounded=1;whiteSpace=wrap;html=1;" vertex="1" parent="1">
          <mxGeometry x="580" y="180" width="70" height="40" as="geometry" />
        </mxCell>
        <mxCell id="0JkTIOT3cr42P_3IT7Oo-7" value="DuckDuckGo" style="rounded=1;whiteSpace=wrap;html=1;" vertex="1" parent="1">
          <mxGeometry x="670" y="180" width="70" height="40" as="geometry" />
        </mxCell>
        <mxCell id="0JkTIOT3cr42P_3IT7Oo-1" value="百度" style="rounded=1;whiteSpace=wrap;html=1;" vertex="1" parent="1">
          <mxGeometry x="220" y="180" width="70" height="40" as="geometry" />
        </mxCell>
        <mxCell id="0JkTIOT3cr42P_3IT7Oo-11" style="edgeStyle=orthogonalEdgeStyle;rounded=0;orthogonalLoop=1;jettySize=auto;html=1;" edge="1" parent="1" source="0JkTIOT3cr42P_3IT7Oo-10" target="0JkTIOT3cr42P_3IT7Oo-8">
          <mxGeometry relative="1" as="geometry" />
        </mxCell>
        <mxCell id="0JkTIOT3cr42P_3IT7Oo-10" value="关键词" style="rounded=1;whiteSpace=wrap;html=1;" vertex="1" parent="1">
          <mxGeometry x="425" y="90" width="100" height="50" as="geometry" />
        </mxCell>
        <mxCell id="0JkTIOT3cr42P_3IT7Oo-16" style="edgeStyle=orthogonalEdgeStyle;rounded=0;orthogonalLoop=1;jettySize=auto;html=1;exitX=0;exitY=0.5;exitDx=0;exitDy=0;entryX=0;entryY=0.5;entryDx=0;entryDy=0;" edge="1" parent="1" source="0JkTIOT3cr42P_3IT7Oo-12" target="0JkTIOT3cr42P_3IT7Oo-14">
          <mxGeometry relative="1" as="geometry" />
        </mxCell>
        <mxCell id="0JkTIOT3cr42P_3IT7Oo-12" value="原始分析结果" style="rounded=1;whiteSpace=wrap;html=1;" vertex="1" parent="1">
          <mxGeometry x="375" y="260" width="200" height="40" as="geometry" />
        </mxCell>
        <mxCell id="0JkTIOT3cr42P_3IT7Oo-19" style="edgeStyle=orthogonalEdgeStyle;rounded=0;orthogonalLoop=1;jettySize=auto;html=1;exitX=1;exitY=0.5;exitDx=0;exitDy=0;entryX=0;entryY=0.5;entryDx=0;entryDy=0;" edge="1" parent="1" source="0JkTIOT3cr42P_3IT7Oo-14" target="0JkTIOT3cr42P_3IT7Oo-17">
          <mxGeometry relative="1" as="geometry" />
        </mxCell>
        <mxCell id="0JkTIOT3cr42P_3IT7Oo-14" value="去重" style="rounded=1;whiteSpace=wrap;html=1;" vertex="1" parent="1">
          <mxGeometry x="375" y="320" width="55" height="40" as="geometry" />
        </mxCell>
        <mxCell id="0JkTIOT3cr42P_3IT7Oo-20" style="edgeStyle=orthogonalEdgeStyle;rounded=0;orthogonalLoop=1;jettySize=auto;html=1;exitX=1;exitY=0.5;exitDx=0;exitDy=0;entryX=0;entryY=0.5;entryDx=0;entryDy=0;" edge="1" parent="1" source="0JkTIOT3cr42P_3IT7Oo-17" target="0JkTIOT3cr42P_3IT7Oo-18">
          <mxGeometry relative="1" as="geometry" />
        </mxCell>
        <mxCell id="0JkTIOT3cr42P_3IT7Oo-17" value="排序" style="rounded=1;whiteSpace=wrap;html=1;" vertex="1" parent="1">
          <mxGeometry x="447.5" y="320" width="55" height="40" as="geometry" />
        </mxCell>
        <mxCell id="0JkTIOT3cr42P_3IT7Oo-24" style="edgeStyle=orthogonalEdgeStyle;rounded=0;orthogonalLoop=1;jettySize=auto;html=1;entryX=1;entryY=0.5;entryDx=0;entryDy=0;" edge="1" parent="1" source="0JkTIOT3cr42P_3IT7Oo-18" target="0JkTIOT3cr42P_3IT7Oo-21">
          <mxGeometry relative="1" as="geometry">
            <Array as="points">
              <mxPoint x="595" y="340" />
              <mxPoint x="595" y="400" />
            </Array>
          </mxGeometry>
        </mxCell>
        <mxCell id="0JkTIOT3cr42P_3IT7Oo-18" value="选取" style="rounded=1;whiteSpace=wrap;html=1;" vertex="1" parent="1">
          <mxGeometry x="520" y="320" width="55" height="40" as="geometry" />
        </mxCell>
        <mxCell id="0JkTIOT3cr42P_3IT7Oo-28" style="edgeStyle=orthogonalEdgeStyle;rounded=0;orthogonalLoop=1;jettySize=auto;html=1;entryX=0.5;entryY=0;entryDx=0;entryDy=0;" edge="1" parent="1" source="0JkTIOT3cr42P_3IT7Oo-21" target="0JkTIOT3cr42P_3IT7Oo-27">
          <mxGeometry relative="1" as="geometry" />
        </mxCell>
        <mxCell id="0JkTIOT3cr42P_3IT7Oo-29" value="获取到结果" style="edgeLabel;html=1;align=center;verticalAlign=middle;resizable=0;points=[];" vertex="1" connectable="0" parent="0JkTIOT3cr42P_3IT7Oo-28">
          <mxGeometry x="0.0571" y="3" relative="1" as="geometry">
            <mxPoint x="1" y="-7" as="offset" />
          </mxGeometry>
        </mxCell>
        <mxCell id="0JkTIOT3cr42P_3IT7Oo-31" style="edgeStyle=orthogonalEdgeStyle;rounded=0;orthogonalLoop=1;jettySize=auto;html=1;entryX=0.5;entryY=0;entryDx=0;entryDy=0;" edge="1" parent="1" source="0JkTIOT3cr42P_3IT7Oo-21" target="0JkTIOT3cr42P_3IT7Oo-30">
          <mxGeometry relative="1" as="geometry" />
        </mxCell>
        <mxCell id="0JkTIOT3cr42P_3IT7Oo-32" value="失败" style="edgeLabel;html=1;align=center;verticalAlign=middle;resizable=0;points=[];" vertex="1" connectable="0" parent="0JkTIOT3cr42P_3IT7Oo-31">
          <mxGeometry x="-0.1125" y="-4" relative="1" as="geometry">
            <mxPoint x="-9" y="-6" as="offset" />
          </mxGeometry>
        </mxCell>
        <mxCell id="0JkTIOT3cr42P_3IT7Oo-21" value="逆向分析" style="rounded=1;whiteSpace=wrap;html=1;" vertex="1" parent="1">
          <mxGeometry x="375" y="380" width="200" height="40" as="geometry" />
        </mxCell>
        <mxCell id="0JkTIOT3cr42P_3IT7Oo-27" value="展示模块" style="rounded=1;whiteSpace=wrap;html=1;" vertex="1" parent="1">
          <mxGeometry x="505" y="460" width="70" height="60" as="geometry" />
        </mxCell>
        <mxCell id="0JkTIOT3cr42P_3IT7Oo-30" value="关键词送入模拟模块" style="rounded=1;whiteSpace=wrap;html=1;" vertex="1" parent="1">
          <mxGeometry x="375" y="460" width="120" height="60" as="geometry" />
        </mxCell>
      </root>
    </mxGraphModel>
  </diagram>
</mxfile>
